<svg version="1.1" id="Layer_1" xmlns="http://www.w3.org/2000/svg" xmlns:xlink="http://www.w3.org/1999/xlink" x="0px" y="0px"
	 width="100%" viewBox="0 0 772 772" enable-background="new 0 0 772 772" xml:space="preserve">
<path fill="#FFA6A4" opacity="1.000000" stroke="none" 
	d="
M773.000000,175.000000 
	C773.000000,374.666656 773.000000,573.833313 773.000000,773.000000 
	C515.666687,773.000000 258.333344,773.000000 1.000000,773.000000 
	C1.000000,515.666687 1.000000,258.333344 1.000000,1.000000 
	C258.333344,1.000000 515.666687,1.000000 773.000000,1.000000 
	C773.000000,58.833332 773.000000,116.666664 773.000000,175.000000 
M350.500000,771.927429 
	C490.776123,771.927429 631.052246,771.927429 771.445312,771.927429 
	C771.445312,515.002808 771.445312,258.670410 771.445312,2.371844 
	C514.871094,2.371844 258.779388,2.371844 2.368822,2.371844 
	C2.368822,258.897919 2.368822,515.113098 2.368822,771.927368 
	C118.276749,771.927368 233.888367,771.927368 350.500000,771.927429 
z"/>
<path fill="#D7271E" opacity="1.000000" stroke="none" 
	d="
M350.000000,771.927368 
	C233.888367,771.927368 118.276749,771.927368 2.368822,771.927368 
	C2.368822,515.113098 2.368822,258.897919 2.368822,2.371844 
	C258.779388,2.371844 514.871094,2.371844 771.445312,2.371844 
	C771.445312,258.670410 771.445312,515.002808 771.445312,771.927429 
	C631.052246,771.927429 490.776123,771.927429 350.000000,771.927368 
M745.868958,33.682053 
	C745.789124,31.916927 745.709290,30.151802 745.633911,28.483849 
	C506.195160,28.483849 267.309875,28.483849 28.512152,28.483849 
	C28.512152,267.793335 28.512152,506.691376 28.512152,745.499023 
	C267.793915,745.499023 506.679016,745.499023 745.867004,745.499023 
	C745.867004,508.264893 745.867004,271.452484 745.868958,33.682053 
z"/>
<path fill="#FFFCFC" opacity="1.000000" stroke="none" 
	d="
M745.867981,34.161079 
	C745.867004,271.452484 745.867004,508.264893 745.867004,745.499023 
	C506.679016,745.499023 267.793915,745.499023 28.512152,745.499023 
	C28.512152,506.691376 28.512152,267.793335 28.512152,28.483849 
	C267.309875,28.483849 506.195160,28.483849 745.633911,28.483849 
	C745.709290,30.151802 745.789124,31.916927 745.867981,34.161079 
M132.500000,716.950989 
	C327.247467,716.950989 521.994934,716.950989 716.692383,716.950989 
	C716.692383,496.605988 716.692383,277.018585 716.692383,57.414085 
	C496.672211,57.414085 276.960388,57.414085 57.304234,57.414085 
	C57.304234,277.378326 57.304234,496.965485 57.304234,716.950989 
	C82.237701,716.950989 106.868851,716.950989 132.500000,716.950989 
z"/>
<path fill="#D9261D" opacity="1.000000" stroke="none" 
	d="
M132.000000,716.950989 
	C106.868851,716.950989 82.237701,716.950989 57.304234,716.950989 
	C57.304234,496.965485 57.304234,277.378326 57.304234,57.414085 
	C276.960388,57.414085 496.672211,57.414085 716.692383,57.414085 
	C716.692383,277.018585 716.692383,496.605988 716.692383,716.950989 
	C521.994934,716.950989 327.247467,716.950989 132.000000,716.950989 
M142.115067,473.108856 
	C142.115067,473.108856 141.822006,472.822083 141.830200,472.101410 
	C142.156418,471.337921 142.439346,470.552399 142.815018,469.814087 
	C182.364258,392.080627 221.921112,314.351044 261.471191,236.618057 
	C262.182709,235.219589 262.818176,233.782440 263.513763,232.311234 
	C262.612518,231.977493 262.307709,231.766006 262.002747,231.765701 
	C236.676025,231.740616 211.348999,231.788116 186.022964,231.651230 
	C182.842163,231.634033 182.183487,233.431854 181.418747,235.744720 
	C148.679413,334.763672 115.917549,433.775146 83.175964,532.793396 
	C82.441811,535.013611 81.910164,537.300903 81.082405,540.283447 
	C122.768570,522.231812 163.563843,504.565948 204.916229,486.658844 
	C203.188431,525.646301 201.504105,563.652832 199.807129,601.944641 
	C188.168839,600.228699 177.251663,598.619080 165.649734,596.908447 
	C176.318268,632.794434 186.717758,667.775452 197.407684,703.733337 
	C221.286621,672.868225 244.545685,642.804321 268.162048,612.278625 
	C256.442261,610.497253 245.641159,608.855469 234.297318,607.131226 
	C257.234192,536.426025 279.944824,466.418121 303.013000,395.308136 
	C300.399811,396.511444 298.781433,397.216095 297.197845,397.991882 
	C258.041687,417.174683 218.903122,436.393433 179.727905,455.537201 
	C167.335861,461.592804 154.847595,467.451538 142.115067,473.108856 
M699.553223,172.500183 
	C699.553223,139.099716 699.553223,105.699242 699.553223,72.403763 
	C589.779785,72.403763 480.880859,72.403763 372.003174,72.403763 
	C372.003174,181.664230 372.003174,290.551178 372.003174,399.291931 
	C481.321899,399.291931 590.208679,399.291931 699.552979,399.291931 
	C699.552979,323.755798 699.552979,248.627991 699.553223,172.500183 
z"/>
<path fill="#FEFDFD" opacity="1.000000" stroke="none" 
	d="
M699.553101,173.000183 
	C699.552979,248.627991 699.552979,323.755798 699.552979,399.291931 
	C590.208679,399.291931 481.321899,399.291931 372.003174,399.291931 
	C372.003174,290.551178 372.003174,181.664230 372.003174,72.403763 
	C480.880859,72.403763 589.779785,72.403763 699.553223,72.403763 
	C699.553223,105.699242 699.553223,139.099716 699.553101,173.000183 
M547.499939,352.182465 
	C563.265320,352.182465 579.030701,352.182465 594.948364,352.182465 
	C594.948364,330.879089 594.948364,310.140900 594.948364,288.829712 
	C577.704773,288.829712 560.667358,288.829712 543.622803,288.829712 
	C543.622803,277.341248 543.622803,266.428864 543.622803,255.088364 
	C559.181824,255.088364 574.426331,255.088364 589.742004,255.088364 
	C589.742004,235.779587 589.742004,216.906357 589.742004,197.593628 
	C574.169739,197.593628 558.929810,197.593628 543.609802,197.593628 
	C543.609802,187.085968 543.609802,177.023483 543.609802,166.512604 
	C560.828003,166.512604 577.742188,166.512604 594.889526,166.512604 
	C594.889526,146.505920 594.889526,126.952477 594.889526,107.403427 
	C555.094849,107.403427 515.575256,107.403427 476.254700,107.403427 
	C476.254700,189.166321 476.254700,270.554077 476.254700,352.182465 
	C499.890503,352.182465 523.195190,352.182465 547.499939,352.182465 
z"/>
<path fill="#FFFDFC" opacity="1.000000" stroke="none" 
	d="
M142.403381,473.400391 
	C154.847595,467.451538 167.335861,461.592804 179.727905,455.537201 
	C218.903122,436.393433 258.041687,417.174683 297.197845,397.991882 
	C298.781433,397.216095 300.399811,396.511444 303.013000,395.308136 
	C279.944824,466.418121 257.234192,536.426025 234.297318,607.131226 
	C245.641159,608.855469 256.442261,610.497253 268.162048,612.278625 
	C244.545685,642.804321 221.286621,672.868225 197.407684,703.733337 
	C186.717758,667.775452 176.318268,632.794434 165.649734,596.908447 
	C177.251663,598.619080 188.168839,600.228699 199.807129,601.944641 
	C201.504105,563.652832 203.188431,525.646301 204.916229,486.658844 
	C163.563843,504.565948 122.768570,522.231812 81.082405,540.283447 
	C81.910164,537.300903 82.441811,535.013611 83.175964,532.793396 
	C115.917549,433.775146 148.679413,334.763672 181.418747,235.744720 
	C182.183487,233.431854 182.842163,231.634033 186.022964,231.651230 
	C211.348999,231.788116 236.676025,231.740616 262.002747,231.765701 
	C262.307709,231.766006 262.612518,231.977493 263.513763,232.311234 
	C262.818176,233.782440 262.182709,235.219589 261.471191,236.618057 
	C221.921112,314.351044 182.364258,392.080627 142.815018,469.814087 
	C142.439346,470.552399 142.156418,471.337921 141.588791,472.567139 
	C141.372391,473.272766 141.397400,473.512634 141.422394,473.752502 
	C141.749390,473.635101 142.076385,473.517731 142.403381,473.400391 
z"/>
<path fill="#1F1A17" opacity="1.000000" stroke="none" 
	d="
M546.999878,352.182465 
	C523.195190,352.182465 499.890503,352.182465 476.254700,352.182465 
	C476.254700,270.554077 476.254700,189.166321 476.254700,107.403427 
	C515.575256,107.403427 555.094849,107.403427 594.889526,107.403427 
	C594.889526,126.952477 594.889526,146.505920 594.889526,166.512604 
	C577.742188,166.512604 560.828003,166.512604 543.609802,166.512604 
	C543.609802,177.023483 543.609802,187.085968 543.609802,197.593628 
	C558.929810,197.593628 574.169739,197.593628 589.742004,197.593628 
	C589.742004,216.906357 589.742004,235.779587 589.742004,255.088364 
	C574.426331,255.088364 559.181824,255.088364 543.622803,255.088364 
	C543.622803,266.428864 543.622803,277.341248 543.622803,288.829712 
	C560.667358,288.829712 577.704773,288.829712 594.948364,288.829712 
	C594.948364,310.140900 594.948364,330.879089 594.948364,352.182465 
	C579.030701,352.182465 563.265320,352.182465 546.999878,352.182465 
z"/>
<path fill="#D9261D" opacity="1.000000" stroke="none" 
	d="
M142.259216,473.254608 
	C142.076385,473.517731 141.749390,473.635101 141.422394,473.752502 
	C141.397400,473.512634 141.372391,473.272766 141.584686,472.927490 
	C141.822006,472.822083 142.115067,473.108856 142.259216,473.254608 
z"/>
</svg>