<?xml version="1.0" encoding="UTF-8" standalone="no"?>
<!-- Created with Inkscape (http://www.inkscape.org/) -->

<svg
   width="105.83334mm"
   height="105.83334mm"
   viewBox="0 0 105.83334 105.83334"
   version="1.1"
   id="svg1"
   xmlns="http://www.w3.org/2000/svg"
   xmlns:svg="http://www.w3.org/2000/svg">
  <defs
     id="defs1" />
  <g
     id="layer1"
     transform="translate(-51.858334,-40.745834)">
    <rect
       style="fill:#ffffff;fill-rule:nonzero;stroke:none;stroke-width:0.529167"
       y="40.745834"
       x="51.858334"
       height="105.83334"
       width="105.83334"
       id="rect1" />
    <path
       style="fill:#237F52;fill-rule:nonzero;stroke:none;stroke-width:0.529167"
       d="M 54.504168,43.391668 H 155.04583 V 143.93333 H 54.504168 Z"
       id="path1" />
    <path
       id="path2-6"
       style="display:inline;fill:#ffffff;fill-opacity:1;stroke-width:0.529167;stroke-linecap:square;stroke-miterlimit:3.4;stroke-dashoffset:0.264567"
       d="m 65.056565,51.673248 v 83.978502 h 2.002758 v -5.83524 h 18.693872 v 5.83524 h 2.003856 V 116.7865 c -0.688083,0.0105 -1.376988,-0.13783 -2.003856,-0.45044 v 11.87099 H 67.059323 v -12.4505 h 17.824325 c -0.08096,-0.0696 -0.162358,-0.13873 -0.238946,-0.21532 -0.410058,-0.41005 -0.718177,-0.88619 -0.926674,-1.39523 H 67.059323 v -12.4505 h 18.693872 v 6.64547 l 2.003856,-2.00386 V 89.648197 l -0.07141,0.07141 c -0.551624,0.55163 -1.222703,0.905597 -1.932447,1.073887 v 9.292556 H 67.059323 V 87.635552 h 1.456202 c -0.07053,-0.296701 -0.117007,-0.601866 -0.117002,-0.918433 0,-0.236019 0.02447,-0.466543 0.06427,-0.692122 h -1.40347 V 73.574496 h 18.693872 v 6.246126 l 2.003856,-2.003856 v -4.685009 c -0.806909,-0.52224 -1.490526,-1.216055 -2.003856,-2.029123 v 0.862409 H 67.059323 V 59.514545 h 18.693872 v 4.635565 c 0.513257,-0.812758 1.197218,-1.506473 2.003856,-2.028572 v -10.44829 h -2.003856 v 6.231838 H 67.059323 v -6.231838 z m 35.189435,5.29e-4 v 14.420842 c 0.35975,-0.105691 0.75092,-0.171929 1.18759,-0.171929 h 1.43478 V 54.295046 h 39.00269 v 40.886803 h -30.77414 l -2.62237,2.622375 h 36.01889 V 51.673799 Z m -8.949791,10.945955 c -2.76524,-2.3e-5 -5.006916,2.241651 -5.006895,5.006891 -2.4e-5,2.765242 2.241653,5.006919 5.006895,5.006896 2.765241,2.3e-5 5.006918,-2.241655 5.006894,-5.006896 2.1e-5,-2.765239 -2.241655,-5.006914 -5.006894,-5.006891 z m 10.137931,4.853636 c -0.7867,0 -1.717729,0.564595 -2.212042,1.07059 L 83.549942,84.216692 h -11.10086 c -1.385264,0 -2.500426,1.115168 -2.500426,2.500425 -10e-7,1.385262 1.115162,2.50043 2.500426,2.500424 H 83.779 c 0.922779,0 2.069999,0.124621 2.810783,-0.594345 l 8.815211,-8.815759 10.536726,10.537276 -20.20061,20.200607 c -1.080228,1.08023 -1.080225,2.81927 0,3.8995 1.080226,1.08023 2.819273,1.08023 3.8995,0 l 24.31598,-24.315438 3.42381,3.423808 h 7.79955 l -21.0784,-21.078945 h 7.29969 v 5.666057 l 4.63007,4.629524 c 0.23091,-0.378992 0.37078,-0.82047 0.37078,-1.29855 V 70.378653 c 0,-2.576912 -1.5216,-2.905263 -3.47049,-2.905263 z M 100.246,86.840684 v 7.007458 l 2.62237,-2.622373 v -1.762162 z" />
  </g>
</svg>
